<?xml version="1.0" encoding="UTF-8" standalone="no"?>
<!-- Created with Inkscape (http://www.inkscape.org/) -->

<svg
   width="10"
   height="10"
   viewBox="0 0 2.6458333 2.6458333"
   version="1.1"
   id="svg1"
   inkscape:version="1.3.2 (091e20e, 2023-11-25, custom)"
   sodipodi:docname="Volume Icon Full.svg"
   xmlns:inkscape="http://www.inkscape.org/namespaces/inkscape"
   xmlns:sodipodi="http://sodipodi.sourceforge.net/DTD/sodipodi-0.dtd"
   xmlns="http://www.w3.org/2000/svg"
   xmlns:svg="http://www.w3.org/2000/svg">
  <sodipodi:namedview
     id="namedview1"
     pagecolor="#505050"
     bordercolor="#eeeeee"
     borderopacity="1"
     inkscape:showpageshadow="0"
     inkscape:pageopacity="0"
     inkscape:pagecheckerboard="0"
     inkscape:deskcolor="#d1d1d1"
     inkscape:document-units="mm"
     inkscape:zoom="90.509668"
     inkscape:cx="3.9001358"
     inkscape:cy="4.756398"
     inkscape:window-width="2560"
     inkscape:window-height="1377"
     inkscape:window-x="-8"
     inkscape:window-y="-8"
     inkscape:window-maximized="1"
     inkscape:current-layer="layer1" />
  <defs
     id="defs1" />
  <g
     inkscape:label="Layer 1"
     inkscape:groupmode="layer"
     id="layer1">
    <path
       style="fill:#ffffff;fill-opacity:1;stroke:none;stroke-width:1;stroke-opacity:0.501961"
       d="M 0.238125,0.9260417 H 0.74083333 L 1.27,0.39687503 V 2.2489583 L 0.74083333,1.7197917 H 0.238125 Z"
       id="path1"
       sodipodi:nodetypes="ccccccc" />
    <path
       style="color:#000000;fill:#ffffff;-inkscape-stroke:none;fill-opacity:1"
       d="m 1.4003906,0.39648438 v 0.26562499 c 0.3668799,10e-9 0.6601563,0.29327623 0.6601563,0.66015623 0,0.36688 -0.2932763,0.6621094 -0.6601563,0.6621094 v 0.2636719 c 0.5098713,0 0.9257813,-0.41591 0.9257813,-0.9257813 0,-0.50987131 -0.4159101,-0.92578121 -0.9257813,-0.92578122 z"
       id="path2" />
    <path
       style="color:#000000;fill:#ffffff;-inkscape-stroke:none;fill-opacity:1"
       d="M 1.4003906,0.79296875 V 1.0585937 c 0.1476922,0 0.2636719,0.1159796 0.2636719,0.2636719 0,0.1476923 -0.1159797,0.265625 -0.2636719,0.265625 v 0.2636719 c 0.2906834,0 0.5273438,-0.2386134 0.5273438,-0.5292969 0,-0.2906834 -0.2366604,-0.52929688 -0.5273438,-0.52929685 z"
       id="path2-6" />
  </g>
</svg>
